<svg enable-background="new 0 0 20 20" height="20" viewBox="0 0 20 20" width="20" xmlns="http://www.w3.org/2000/svg">
    <path d="m0 0h20v20h-20z" fill="none"/>
    <path d="m4.5 5h9c.28 0 .5-.22.5-.5s-.22-.5-.5-.5h-9c-.28 0-.5.22-.5.5s.22.5.5.5z" fill="#ffffff"/>
    <path d="m13 14h1v-3h.61c.33 0 .56-.31.49-.62l-1-4c-.06-.22-.26-.38-.49-.38h-9.22c-.23 0-.43.16-.48.38l-1 4c-.08.31.16.62.48.62h.61v4.5c0 .28.22.5.5.5h5c.28 0 .5-.22.5-.5v-4.5h3zm-4 1h-4v-4h4z" fill="#ffffff"/>
    <path d="m16 15v-1.5c0-.28-.22-.5-.5-.5-.28 0-.5.22-.5.5v1.5h-1.5c-.28 0-.5.22-.5.5 0 .28.22.5.5.5h1.5v1.5c0 .28.22.5.5.5.28 0 .5-.22.5-.5v-1.5h1.5c.28 0 .5-.22.5-.5 0-.28-.22-.5-.5-.5z" fill="#ffffff"/>
</svg>
